<svg width="120" height="120" viewBox="0 0 120 120" fill="none" xmlns="http://www.w3.org/2000/svg">
<path d="M60 10C32.43 10 10 32.43 10 60C10 87.57 32.43 110 60 110C87.57 110 110 87.57 110 60C110 32.43 87.57 10 60 10ZM35 52.5L35.01 52.39L28.145 49.645L31.855 40.36L56.855 50.36L53.145 59.645L47.99 57.58C47.92 57.65 47.875 57.735 47.805 57.8C46.7573 58.8517 45.4209 59.5687 43.9653 59.8599C42.5096 60.1511 41.0003 60.0035 39.6286 59.4357C38.257 58.868 37.0848 57.9057 36.2608 56.671C35.4367 55.4362 34.9979 53.9845 35 52.5ZM40 85C40 85 45 70 60 70C75 70 80 85 80 85H40ZM84.93 52.465C84.93 54.525 84.095 56.39 82.74 57.745C82.0484 58.4416 81.2259 58.9945 80.3197 59.3718C79.4135 59.7491 78.4416 59.9433 77.46 59.9433C76.4784 59.9433 75.5065 59.7491 74.6003 59.3718C73.6941 58.9945 72.8716 58.4416 72.18 57.745C72.125 57.69 72.085 57.625 72.035 57.57L66.85 59.645L63.14 50.36L88.14 40.36L91.85 49.645L84.92 52.415C84.9257 52.4311 84.9291 52.4479 84.93 52.465Z" fill="black"/>
</svg>
