<svg width="120" height="120" viewBox="0 0 120 120" fill="none" xmlns="http://www.w3.org/2000/svg">
<path d="M13.1721 89.59C13.5192 91.098 14.2568 92.4881 15.3107 93.6211C16.3647 94.7541 17.6981 95.59 19.1771 96.045L20.0771 100H20.0021V110H100.002V100H33.4171C33.4827 99.5379 33.4709 99.0682 33.3821 98.61L32.4021 94.295L84.1871 82.515L85.1671 86.83C85.4281 87.9748 86.133 88.9691 87.1268 89.5944C88.1206 90.2198 89.322 90.425 90.4671 90.165L94.7821 89.18C95.3492 89.0513 95.8855 88.8121 96.3601 88.476C96.8348 88.1399 97.2385 87.7136 97.5482 87.2213C97.858 86.7291 98.0676 86.1806 98.1652 85.6073C98.2628 85.034 98.2465 84.447 98.1171 83.88L96.8621 78.365C99.0921 76.285 100.212 73.135 99.4871 69.95L96.5371 57C96.1791 55.4398 95.4024 54.0069 94.2905 52.8553C93.1786 51.7038 91.7737 50.8774 90.2271 50.465L79.9821 33.575C78.4713 31.0935 76.2194 29.149 73.5442 28.0159C70.869 26.8829 67.9056 26.6185 65.0721 27.26L25.7321 36.21C22.8955 36.8526 20.3333 38.3721 18.409 40.553C16.4848 42.7339 15.2963 45.4655 15.0121 48.36L13.0771 68.02C11.8634 69.0621 10.9567 70.4153 10.4546 71.9341C9.95244 73.4529 9.87377 75.0798 10.2271 76.64L13.1721 89.59ZM28.2721 86.15C27.4221 86.3437 26.5423 86.3681 25.6829 86.2218C24.8235 86.0755 24.0013 85.7613 23.2633 85.2972C22.5253 84.8332 21.8859 84.2283 21.3817 83.5171C20.8775 82.806 20.5183 82.0025 20.3246 81.1525C20.1309 80.3025 20.1065 79.4227 20.2528 78.5633C20.3991 77.7039 20.7133 76.8817 21.1773 76.1437C21.6414 75.4057 22.2463 74.7664 22.9574 74.2621C23.6686 73.7579 24.4721 73.3987 25.3221 73.205C27.0387 72.8138 28.8404 73.1206 30.3308 74.0578C31.8213 74.995 32.8784 76.4859 33.2696 78.2025C33.6607 79.9191 33.354 81.7208 32.4168 83.2113C31.4796 84.7017 29.9887 85.7588 28.2721 86.15ZM84.3821 73.39C83.5175 73.6276 82.6138 73.6877 81.7255 73.5667C80.8371 73.4456 79.9825 73.1459 79.2131 72.6856C78.4437 72.2252 77.7755 71.6139 77.2487 70.8883C76.722 70.1628 76.3477 69.3381 76.1483 68.4639C75.949 67.5898 75.9287 66.6843 76.0888 65.8021C76.2488 64.92 76.5859 64.0793 77.0796 63.3309C77.5733 62.5825 78.2135 61.9419 78.9616 61.4476C79.7096 60.9534 80.55 60.6157 81.4321 60.455C83.1148 60.1484 84.8509 60.5031 86.2787 61.445C87.7064 62.3869 88.7156 63.8434 89.0959 65.5111C89.4762 67.1787 89.1983 68.9287 88.3202 70.3965C87.442 71.8643 86.0313 72.9366 84.3821 73.39ZM27.9471 45.96L67.2921 37.005C68.0804 36.8269 68.9048 36.9004 69.6493 37.2152C70.3937 37.53 71.0207 38.0703 71.4421 38.76L79.3671 51.825L76.5371 52.47L26.3071 63.905L23.4671 64.55L24.9621 49.34C25.0425 48.5348 25.374 47.7753 25.9097 47.1688C26.4453 46.5623 27.158 46.1394 27.9471 45.96ZM92.0271 20L85.0021 10L82.5021 25L95.0021 45L110.002 50L100.002 37.305L110.002 32.64L100.002 27.975L110.002 10L92.0271 20Z" fill="black"/>
</svg>
