<svg width="120" height="120" viewBox="0 0 120 120" fill="none" xmlns="http://www.w3.org/2000/svg">
<path d="M100 20.001H20C17.3478 20.001 14.8043 21.0545 12.9289 22.9299C11.0536 24.8053 10 27.3488 10 30.001V90.001C10 92.6531 11.0536 95.1967 12.9289 97.072C14.8043 98.9474 17.3478 100.001 20 100.001H100C102.652 100.001 105.196 98.9474 107.071 97.072C108.946 95.1967 110 92.6531 110 90.001V30.001C110 27.3488 108.946 24.8053 107.071 22.9299C105.196 21.0545 102.652 20.001 100 20.001V20.001ZM100 55.001H20V40.001H100V55.001Z" fill="black"/>
</svg>
