<svg width="128" height="120" viewBox="0 0 128 120" fill="none" xmlns="http://www.w3.org/2000/svg">
<g clip-path="url(#clip0_3720_33467)">
<path d="M98.7894 24.2909C103.869 24.2909 107.932 19.4632 107.932 13.3651C107.932 7.26693 103.869 2.38843 98.7894 2.38843C93.7105 2.38843 89.6473 7.26693 89.6473 13.3651C89.6473 19.4632 93.7105 24.2909 98.7894 24.2909ZM98.7894 73.4825C100.483 73.4825 101.202 74.9053 102.175 78.5644C103.572 83.697 107.889 104.989 109.329 111.24C110.048 114.391 111.402 115.712 113.392 115.712C116.101 115.712 117.751 112.765 116.989 109.563C116.651 108.191 110.514 77.3957 109.667 71.0432C108.947 65.4535 108.778 54.1718 108.778 48.8358C108.778 48.0227 109.54 47.7179 109.921 48.4295C113.138 53.7651 118.936 63.7255 120.079 65.3516C121.349 67.0797 123.338 67.3846 125.031 66.2662C127.19 64.8941 127.698 62.0993 126.809 60.1683C126.428 59.4059 126.005 58.6436 125.539 57.8817L114.619 38.5199C111.106 32.3709 106.831 29.6268 98.7894 29.6268C90.7474 29.6268 86.4302 32.3709 82.9597 38.5199L71.9972 57.8817C71.5317 58.6436 71.1084 59.4059 70.77 60.1683C69.8811 62.0993 70.3467 64.8941 72.5054 66.2662C74.1983 67.3846 76.1876 67.0797 77.4575 65.3516C78.6003 63.7255 84.3986 53.8162 87.6156 48.4295C87.9963 47.7686 88.8007 48.0227 88.8007 48.8866C88.8007 54.2226 88.589 65.4535 87.8695 71.0432C87.0229 77.3957 80.8858 108.191 80.5893 109.563C79.7853 112.765 81.4781 115.712 84.187 115.712C86.1763 115.712 87.4885 114.391 88.2502 111.24C89.6473 104.989 93.9644 83.697 95.4033 78.5644C96.3345 74.9053 97.0539 73.4825 98.7894 73.4825Z" fill="black" fill-opacity="0.85"/>
<path d="M28.4443 24.2909C33.5234 24.2909 37.5866 19.4632 37.5866 13.3651C37.5866 7.26693 33.5234 2.38843 28.4443 2.38843C23.3653 2.38843 19.302 7.26693 19.302 13.3651C19.302 19.4632 23.3653 24.2909 28.4443 24.2909ZM28.4443 73.4825C30.1797 73.4825 30.8569 74.9053 31.8304 78.5644C33.2694 83.697 37.5444 104.989 38.9833 111.24C39.7028 114.391 41.0572 115.712 43.0466 115.712C45.7554 115.712 47.406 112.765 46.6443 109.563C46.3481 108.191 40.211 77.3957 39.3221 71.0432C38.6023 65.4535 38.4332 54.1718 38.4332 48.8358C38.4332 48.0227 39.195 47.7179 39.6183 48.4295C42.7927 53.7651 48.5914 63.7255 49.7341 65.3516C51.0037 67.0797 53.0353 67.3846 54.6862 66.2662C56.8446 64.8941 57.3528 62.0993 56.4639 60.1683C56.1252 59.4059 55.6596 58.6436 55.2363 57.8817L44.2742 38.5199C40.8033 32.3709 36.4861 29.6268 28.4443 29.6268C20.4025 29.6268 16.0853 32.3709 12.6146 38.5199L1.65231 57.8817C1.22905 58.6436 0.763474 59.4059 0.42487 60.1683C-0.463965 62.0993 0.00161459 64.8941 2.20254 66.2662C3.85322 67.3846 5.88484 67.0797 7.1123 65.3516C8.25507 63.7255 14.096 53.8162 17.2704 48.4295C17.6514 47.7686 18.4555 48.0227 18.4555 48.8866C18.4555 54.2226 18.2439 65.4535 17.5244 71.0432C16.6778 77.3957 10.5407 108.191 10.2444 109.563C9.48253 112.765 11.1332 115.712 13.842 115.712C15.8313 115.712 17.1858 114.391 17.9053 111.24C19.3444 104.989 23.6192 83.697 25.0583 78.5644C26.0318 74.9053 26.709 73.4825 28.4443 73.4825Z" fill="black" fill-opacity="0.85"/>
<path d="M54.6009 119.574C57.9024 119.574 60.3996 117.033 61.2462 113.12C61.754 110.986 62.7274 106.311 63.6163 101.94C64.5051 106.311 65.4362 110.986 65.9867 113.12C66.8333 117.033 69.2878 119.574 72.5893 119.574C77.1181 119.574 80.0809 114.441 78.9381 109.36C78.7687 108.852 75.0865 89.9982 74.4938 86.0854C74.1132 83.1379 74.0283 77.1415 74.0283 74.651C74.0283 74.194 74.0283 74.0921 74.4093 73.635C76.9914 69.7218 80.2925 65.1993 81.5202 63.319C83.8057 59.9648 83.4247 55.5438 81.0969 52.5455C78.5571 49.1917 74.1132 49.2425 71.7427 52.2914L67.2139 57.983C65.6479 60.0155 65.2672 60.3208 63.6163 60.3208C61.9234 60.3208 61.5424 60.0155 60.0186 57.983L55.4898 52.2914C53.0775 49.2425 48.6332 49.1917 46.0937 52.5455C43.8082 55.5438 43.3849 60.0155 45.6704 63.3698C46.94 65.2501 50.2415 69.7218 52.8232 73.635C53.162 74.0921 53.162 74.194 53.162 74.651C53.162 77.1415 53.0775 83.1379 52.6964 86.0854C52.146 89.9982 48.4215 108.852 48.2944 109.36C47.1094 114.441 50.0721 119.574 54.6009 119.574Z" fill="white"/>
<path d="M63.6169 59.4059C67.3417 59.4059 70.4312 55.7472 70.4312 51.275C70.4312 46.8033 67.3417 43.1443 63.6169 43.1443C59.8925 43.1443 56.8448 46.8033 56.8448 51.275C56.8448 55.7472 59.8925 59.4059 63.6169 59.4059ZM54.6016 115.712C56.2525 115.712 57.5643 114.594 58.1147 112.053C59.0036 108.242 61.5853 95.1309 62.4319 91.9293C63.0246 89.8461 63.1514 89.6934 63.6169 89.6934C64.0402 89.6934 64.1673 89.8461 64.7597 91.9293C65.6063 95.1309 68.1883 108.242 69.1194 112.053C69.6273 114.594 70.9817 115.712 72.59 115.712C74.9604 115.712 76.3993 113.019 75.8067 110.376C75.595 109.512 71.9128 90.6587 71.3201 86.6952C70.8972 83.5443 70.77 77.1923 70.77 74.6511C70.77 73.1776 71.1511 72.2119 71.8705 71.1958C74.9178 66.6222 78.7694 61.3877 79.2349 60.5238C80.2509 58.7455 79.8699 56.6618 78.7271 55.239C77.415 53.4602 75.2143 53.5109 74.0716 54.9341L69.585 60.6765C67.7224 63.065 66.1567 64.1829 63.6169 64.1829C61.0775 64.1829 59.5114 63.065 57.6492 60.6765L53.1626 54.9341C52.0199 53.5109 49.7766 53.4602 48.4644 55.239C47.3217 56.6618 46.9832 58.7455 47.9566 60.5238C48.4222 61.3877 52.2738 66.6222 55.3636 71.1958C56.0409 72.2119 56.4215 73.1776 56.4215 74.6511C56.4215 77.1923 56.337 83.5443 55.9137 86.6952C55.3214 90.6587 51.5966 109.512 51.3849 110.376C50.8348 113.019 52.2315 115.712 54.6016 115.712Z" fill="black" fill-opacity="0.85"/>
</g>
<defs>
<clipPath id="clip0_3720_33467">
<rect width="127.225" height="119.574" fill="white"/>
</clipPath>
</defs>
</svg>
