<svg width="120" height="120" viewBox="0 0 120 120" fill="none" xmlns="http://www.w3.org/2000/svg">
<path d="M88.2998 55.9985C87.1498 54.4985 85.7498 53.1985 84.4498 51.8985C81.0998 48.8985 77.2998 46.7485 74.0998 43.5985C66.6498 36.2985 64.9998 24.2485 69.7498 14.9985C64.9998 16.1485 60.8498 18.7485 57.2998 21.5985C44.3498 31.9985 39.2498 50.3485 45.3498 66.0985C45.5498 66.5985 45.7498 67.0985 45.7498 67.7485C45.7498 68.8485 44.9998 69.8485 43.9998 70.2485C42.8498 70.7485 41.6498 70.4485 40.6998 69.6485C40.3998 69.3985 40.1998 69.1485 39.9998 68.7985C34.3498 61.6485 33.4498 51.3985 37.2498 43.1985C28.8998 49.9985 24.3498 61.4985 24.9998 72.3485C25.2998 74.8485 25.5998 77.3485 26.4498 79.8485C27.1498 82.8485 28.4998 85.8485 29.9998 88.4985C35.3998 97.1485 44.7498 103.349 54.7998 104.599C65.4998 105.949 76.9498 103.999 85.1498 96.5985C94.2998 88.2985 97.4998 74.9985 92.7998 63.5985L92.1498 62.2985C91.0998 59.9985 88.2998 55.9985 88.2998 55.9985ZM72.4998 87.4985C71.0998 88.6985 68.7998 89.9985 66.9998 90.4985C61.3998 92.4985 55.7998 89.6985 52.4998 86.3985C58.4498 84.9985 61.9998 80.5985 63.0498 76.1485C63.8998 72.1485 62.2998 68.8485 61.6498 64.9985C61.0498 61.2985 61.1498 58.1485 62.4998 54.6985C63.4498 56.5985 64.4498 58.4985 65.6498 59.9985C69.4998 64.9985 75.5498 67.1985 76.8498 73.9985C77.0498 74.6985 77.1498 75.3985 77.1498 76.1485C77.2998 80.2485 75.4998 84.7485 72.4998 87.4985Z" fill="black"/>
</svg>
