<svg width="120" height="120" viewBox="0 0 120 120" fill="none" xmlns="http://www.w3.org/2000/svg">
<path d="M47.5 14.9998C56.1195 14.9998 64.386 18.4239 70.481 24.5188C76.5759 30.6137 80 38.8802 80 47.4998C80 55.5498 77.05 62.9497 72.2 68.6497L73.55 69.9998H77.5L102.5 94.9997L95 102.5L70 77.4997V73.5498L68.65 72.1997C62.95 77.0497 55.55 79.9997 47.5 79.9997C38.8805 79.9997 30.614 76.5757 24.519 70.4807C18.4241 64.3858 15 56.1193 15 47.4998C15 38.8802 18.4241 30.6137 24.519 24.5188C30.614 18.4239 38.8805 14.9998 47.5 14.9998V14.9998ZM47.5 24.9998C35 24.9998 25 34.9998 25 47.4998C25 59.9998 35 69.9998 47.5 69.9998C60 69.9998 70 59.9998 70 47.4998C70 34.9998 60 24.9998 47.5 24.9998Z" fill="black"/>
</svg>
