<svg width="120" height="120" viewBox="0 0 120 120" fill="none" xmlns="http://www.w3.org/2000/svg">
<path d="M79.15 49.0417C73.5 48.4917 68.45 51.8917 67.3 57.4917C67.3 59.1917 74.05 61.4417 80.25 61.4417C86.45 61.4417 92.05 57.4917 92.05 56.3917C92.05 55.2417 88.15 49.6417 79.15 49.0417ZM40.9 49.0417C31.9 49.6417 27.95 54.6917 27.95 56.3417C27.95 57.4917 34.1 61.4417 39.75 61.4417C45.4 61.4417 52.7 59.1917 52.7 57.4917C51.55 51.8917 45.95 48.4917 40.9 49.0417ZM84.75 79.9917C75.2 79.9917 69 68.7417 60 68.7417C51 68.7417 44.25 79.9917 35.25 79.9917C23.45 79.9917 15 69.2917 15 50.1917C15 38.3917 18.4 34.9917 33.55 34.9917C48.7 34.9917 52.7 41.1917 60 41.1917C67.3 41.1917 71.8 34.9917 86.45 34.9917C101.1 34.9917 105 38.9417 105 50.1917C105 69.2917 96.55 79.9917 84.75 79.9917Z" fill="black"/>
</svg>
