<svg width="120" height="120" viewBox="0 0 120 120" fill="none" xmlns="http://www.w3.org/2000/svg">
<path d="M109.688 26.2507H97.5V97.5007C97.5 99.4899 98.2902 101.398 99.6967 102.804C101.103 104.211 103.011 105.001 105 105.001C106.989 105.001 108.897 104.211 110.303 102.804C111.71 101.398 112.5 99.4899 112.5 97.5007V29.0632C112.5 28.3173 112.204 27.6019 111.676 27.0745C111.149 26.547 110.433 26.2507 109.688 26.2507Z" fill="black"/>
<path d="M101.051 111.973C97.8786 111.103 95.0796 109.216 93.0833 106.602C91.0871 103.987 90.0039 100.79 90 97.5007V10.3132C90 9.56731 89.7037 8.85194 89.1762 8.32449C88.6488 7.79705 87.9334 7.50073 87.1875 7.50073H10.3125C9.56658 7.50073 8.85121 7.79705 8.32376 8.32449C7.79632 8.85194 7.5 9.56731 7.5 10.3132V99.3757C7.5 102.857 8.88281 106.195 11.3442 108.657C13.8056 111.118 17.144 112.501 20.625 112.501H100.98C101.047 112.503 101.112 112.481 101.163 112.438C101.214 112.395 101.247 112.335 101.256 112.269C101.264 112.203 101.248 112.136 101.21 112.082C101.173 112.027 101.116 111.988 101.051 111.973V111.973ZM22.5 48.7507V26.2507H45V48.7507H22.5ZM75 93.7507H22.5V86.2507H75V93.7507ZM75 78.7507H22.5V71.2507H75V78.7507ZM75 63.7507H22.5V56.2507H75V63.7507ZM75 48.7507H52.5V41.2507H75V48.7507ZM75 33.7507H52.5V26.2507H75V33.7507Z" fill="black"/>
</svg>
