<svg width="120" height="120" viewBox="0 0 120 120" fill="none" xmlns="http://www.w3.org/2000/svg">
<path d="M34.9996 25H115V45H110V50H79.9996C78.6735 50 77.4018 50.5268 76.4641 51.4645C75.5264 52.4021 74.9996 53.6739 74.9996 55V60C74.9996 62.6522 73.946 65.1957 72.0707 67.0711C70.1953 68.9464 67.6518 70 64.9996 70H48.0996C46.1996 70 44.4496 71.1 43.5996 72.8L31.3496 97.25C30.4996 98.95 28.7996 100 26.8996 100H9.99961C9.99961 100 -5.00039 100 14.9996 70C14.9996 70 29.9996 50 9.99961 50V25H14.9996L17.4996 20H32.4996L34.9996 25ZM69.9996 60V55C69.9996 53.6739 69.4728 52.4021 68.5351 51.4645C67.5975 50.5268 66.3257 50 64.9996 50H59.9996C59.9996 50 54.9996 55 59.9996 60C57.3474 60 54.8039 58.9464 52.9285 57.0711C51.0532 55.1957 49.9996 52.6522 49.9996 50C48.6735 50 47.4018 50.5268 46.4641 51.4645C45.5264 52.4021 44.9996 53.6739 44.9996 55V60C44.9996 61.3261 45.5264 62.5979 46.4641 63.5355C47.4018 64.4732 48.6735 65 49.9996 65H64.9996C66.3257 65 67.5975 64.4732 68.5351 63.5355C69.4728 62.5979 69.9996 61.3261 69.9996 60Z" fill="black"/>
</svg>
