<svg width="120" height="120" viewBox="0 0 120 120" fill="none" xmlns="http://www.w3.org/2000/svg">
<path d="M95.1187 32.0872C93.5513 24.6593 89.6407 17.9307 83.9625 12.8919C79.7512 9.12447 74.7092 6.40558 69.2475 4.95688C63.7858 3.50818 58.0591 3.37068 52.5342 4.55559C47.0092 5.74049 41.8425 8.21426 37.4553 11.7752C33.068 15.3362 29.5843 19.8835 27.2883 25.0466C14.1797 25.82 3.75 36.7161 3.75 50.0005C3.75 63.7864 14.9789 75.0013 28.7812 75.0013H45.7289L41.25 97.5013H52.5V116.251L78.75 82.5013H68.5523L70.4273 75.0013H94.7648C100.411 74.9786 105.82 72.7319 109.821 68.7482C113.821 64.7644 116.091 59.3646 116.137 53.719C116.184 48.0734 114.004 42.6369 110.069 38.5877C106.135 34.5386 100.763 32.203 95.1187 32.0872V32.0872Z" fill="black"/>
<path d="M26.4489 77.4745L17.4678 95.4329L24.1757 98.7875L33.1568 80.8292L26.4489 77.4745Z" fill="black"/>
<path d="M30.1974 96.2276L23.0918 110.436L29.7997 113.79L36.9053 99.5823L30.1974 96.2276Z" fill="black"/>
<path d="M92.0778 77.4774L83.0967 95.4358L89.8046 98.7905L98.7857 80.8321L92.0778 77.4774Z" fill="black"/>
<path d="M95.8273 96.2305L88.7217 110.439L95.4296 113.793L102.535 99.5852L95.8273 96.2305Z" fill="black"/>
</svg>
